<?xml version="1.0" encoding="utf-8"?>
<!-- Generator: Adobe Illustrator 16.0.0, SVG Export Plug-In . SVG Version: 6.00 Build 0)  -->
<!DOCTYPE svg PUBLIC "-//W3C//DTD SVG 1.1//EN" "http://www.w3.org/Graphics/SVG/1.1/DTD/svg11.dtd">
<svg version="1.1" xmlns="http://www.w3.org/2000/svg" xmlns:xlink="http://www.w3.org/1999/xlink" x="0px" y="0px"
	 width="673.132px" height="153.897px" viewBox="0 0 673.132 153.897" enable-background="new 0 0 673.132 153.897"
	 xml:space="preserve">
<g id="Logo">
	<rect x="-85.316" y="-125.771" display="none" fill="#B3B3B3" width="841.892" height="595.275"/>
	<g display="none">
		<g display="inline">
			<line fill="none" stroke="#1D1D1B" stroke-width="0.25" x1="336.566" y1="211.161" x2="336.566" y2="212.161"/>
			
				<line fill="none" stroke="#1D1D1B" stroke-width="0.25" stroke-dasharray="11.7373,1.1737" x1="336.566" y1="213.334" x2="336.566" y2="225.659"/>
			
				<line fill="none" stroke="#1D1D1B" stroke-width="0.25" stroke-dasharray="1.1737,1.1737,11.7373,1.1737" x1="336.566" y1="226.246" x2="336.566" y2="240.917"/>
			<line fill="none" stroke="#1D1D1B" stroke-width="0.25" x1="336.566" y1="241.503" x2="336.566" y2="242.503"/>
		</g>
	</g>
	<g display="none">
		<g display="inline">
			<line fill="none" stroke="#1D1D1B" stroke-width="0.25" x1="336.566" y1="-105.506" x2="336.566" y2="-104.506"/>
			
				<line fill="none" stroke="#1D1D1B" stroke-width="0.25" stroke-dasharray="11.7373,1.1737" x1="336.566" y1="-103.333" x2="336.566" y2="-91.008"/>
			
				<line fill="none" stroke="#1D1D1B" stroke-width="0.25" stroke-dasharray="1.1737,1.1737,11.7373,1.1737" x1="336.566" y1="-90.421" x2="336.566" y2="-75.75"/>
			<line fill="none" stroke="#1D1D1B" stroke-width="0.25" x1="336.566" y1="-75.163" x2="336.566" y2="-74.163"/>
		</g>
	</g>
	<g>
		<rect x="-50.537" y="-44.32" fill="none" width="774.206" height="252.685"/>
		<g>
			<g>
				<g>
					<path fill="#FFFFFF" d="M228.108,107.291L228.108,107.291H0v6.217h232.559C229.847,110.635,228.336,108.42,228.108,107.291z"/>
					<path fill="#FFFFFF" d="M673.132,107.291H445.024c-13.295,10.247-27.708,18.663-43.032,24.941
						c18.467-4.963,33.535-11.693,45.477-18.724h225.664V107.291z"/>
				</g>
				<path id="XMLID_235_" fill="#00833E" d="M673.132,6.217H0v101.073h228.108c26.907,20.735,71.975,37.84,108.458,37.84
					c40.527,0,77.509-13.986,108.458-37.84h228.108V6.217z"/>
				<rect fill="#FFFFFF" width="673.132" height="6.217"/>
				<path fill="#B1BC00" d="M366.864,120.432c-29.214,3.083-45.098-4.175-45.761-2.954c-1.683,3.091,11.078,16.102,43.449,13.836
					c28.842-2.021,49.205-21.028,56.258-32.598C419.213,97.192,395.947,117.364,366.864,120.432z"/>
				<path fill="#E2231A" d="M341.59,140.298c-52.631,0.858-95.909-22.501-113.482-33.008c1.358,6.723,47.966,51.831,125.089,46.106
					c64.701-4.803,94.271-33.707,94.271-39.889C424.452,127.06,389.85,139.511,341.59,140.298z"/>
				<g id="XMLID_231_">
					<g>
						<path fill="#FFFFFF" d="M243.187,75.602c-0.333-5.638,0.21-18.316-0.04-22.803c-0.287-4.961-3.304-6.94-7.917-6.94
							c-1.244,0-2.493,0.151-3.961,0.381c1.156,6.122,0.529,12.434,0.214,16.591c-0.246,3.249-1.563,5.836-2.45,7.194
							c-4.173,6.394-6.412,7.227-7.932,7.227c-1.631,0-3.032-1.128-3.211-3.322c-0.192-2.38-0.033-17.236,0.074-20.108
							c0.358-9.594-8.602-7.934-10.272-7.75c-0.607,0.066-1.01,0.129-1.59,0.189c0.029,1.614,0.358,23.634,0.399,26.565
							c0.171,12.384,7.501,14.361,11.308,13.94c3.898-0.431,7.73-4.258,10.026-6.949c0.662-0.779,3.35-4.19,3.35-4.19
							c0.628,2.744,1.758,9.522,8.92,11.275c3.347,0.821,6.526-0.341,7.736-4.521c0.036-0.125-0.002-0.238-0.107-0.299
							C246.319,81.256,243.404,79.29,243.187,75.602z"/>
					</g>
					<path id="XMLID_233_" fill="#FFFFFF" d="M578.506,85.832c-1.453-4.316-1.48-1.81-1.567-26.212
						c-0.045-12.508-7.501-14.504-11.309-14.079c-6.124,0.684-12.188,8.368-13.579,10.379c-0.736-3.819-2.799-8.774-8.716-10.237
						c-3.401-0.843-6.129,0.467-7.322,3.5c-0.57,1.442-0.56,1.229,0.482,1.931c2.733,1.835,3.641,4.126,3.788,6.871
						c0.17,3.009-0.125,19.189,0.009,21.621c0.396,6.893,6.049,7.009,7.917,7.009c1.178,0,2.433-0.094,3.9-0.326
						c-0.791-6.497-0.379-10.801-0.059-16.72c0.143-2.62,0.754-4.785,1.822-6.555c2.138-3.542,5.64-8.102,8.465-8.102
						c1.631,0,2.984,1.375,3.164,3.591c0.192,2.404-0.003,16.832,0.02,20.069c0.05,6.915,4.185,8.051,7.523,8.051
						C574.695,86.625,577.049,86.267,578.506,85.832z"/>
					<path fill="#FFFFFF" d="M200.447,77.041c-0.337-1.128-1.031-2.293-1.558-2.562c-2.04,1.989-5.989,5.105-9.724,5.105
						c-2.661,0-6.958-1.482-8.295-4.567c10.581-4.067,17.177-8.572,18.33-16.012c1.359-8.779-4.116-13.846-12.575-13.846
						c-13.774,0-19.452,10.998-19.463,21.904c-0.013,10.247,6.015,20.354,20.458,20.354
						C191.763,87.417,202.625,84.332,200.447,77.041z M178.795,69.119c-1.589-8.44,1.97-17.251,8.471-17.251
						c5.017,0,4.459,8.44,0.832,11.817C185.209,66.374,181.983,68.044,178.795,69.119z"/>
					<path fill="#FFFFFF" d="M165.508,77.722c-0.967,0.244-1.91,0.53-3.503,0.53c-3.399,0-5.756-1.802-6.778-4.324
						c-1.41-3.5-0.375-27.82-0.425-32.012c0.083-4.975-0.879-6.84-3.875-7.789c-2.131-0.666-5.326-0.533-7.748-0.196
						c0,0,0.02,27.807,0.117,34.547c0.157,10.873,3.751,17.071,12.514,18.162c3.87,0.482,7.92-0.196,9.039-1.93
						C165.919,83.048,166.149,79.895,165.508,77.722z"/>
					<path fill="#FFFFFF" d="M278.272,49.846c0.372-5.173-0.544-5.711-5.064-4.605c-4.869,1.191-6.808,4.83-8.708,11.588
						c-0.013-1.236-0.042-4.347-0.103-5.575c-0.19-4.088-2.993-5.646-5.827-5.646c-2.097,0-4.813,0.941-6.881,2.881
						c-0.149,0.152-0.156,0.43-0.059,0.823c1.207,4.936,1.125,9.292,1.047,14.22c-0.044,4.137-0.265,11.486,0.149,16.282
						c0.481,5.423,4.085,6.94,8.131,6.94c1.244,0,2.489-0.151,3.949-0.381c-1.002-4.179-1.305-16.944-0.47-22.054
						c1.358-7.198,7.957-9.596,11.537-8.474C276.798,56.105,278.038,53.113,278.272,49.846z"/>
					<path fill="#FFFFFF" d="M147.646,18.803c0,0-1.22,0.354-9.262,0.753c-6.95,0.345-18.986,0.19-21.653,0.321
						c-6.156,0.358-8.382,3.753-8.143,10.373c0.239,6.621,1.615,51.102,0.111,55.151c0,0,3.817,2.415,7.971,1.229
						c3.762-1.074,4.113-5.138,4.285-7.873c0.22-3.499,0.228-22.899,0.283-24.015c2.547-0.092,5.704-0.07,8.495-0.163
						c2.372-0.1,6.109-1.326,7.364-4.608c0.396-1.035,0.434-2.686,0.023-4.183c-1.351,0.243-2.149,0.359-5.455,0.359
						c-1.667,0-10.544-0.137-10.544-0.137s-0.191-13.543,0.132-16.621c0,0,11.406,0.416,15.419,0.513
						c4.877,0.087,8.445-1.006,10.006-3.87C147.941,23.715,147.977,21.338,147.646,18.803z"/>
					<path fill-rule="evenodd" clip-rule="evenodd" fill="#FFFFFF" d="M319.917,52.769c0.068-4.913-3.694-7.666-11.776-6.846
						c1.491,15.078-0.404,28.689-6.786,28.846c-2.522,0.062-4.006-3.532-7.263-19.658c-1.254-6.209-1.754-11.017-12.153-9.256
						c-1.304,0.221-1.294,0.255-0.783,1.917c1.674,5.447,4.93,21.356,5.981,25.199c1.717,6.276,6.233,10.524,11.794,10.047
						c3.465-0.297,5.538-2.263,6.755-4.435c-2.109,15.063-12.581,21.553-22.186,17.807c-0.292-0.113-0.627,0.175-0.907,1.03
						c-1.343,4.233,2.249,8.52,6.197,9.355C303.37,109.858,319.308,96.769,319.917,52.769z"/>
					<path id="XMLID_232_" fill="#FFFFFF" d="M404.256,41.195c-3.037-0.042-5.715-1.395-6.134-4.926
						c-0.323-2.73,0.294-6.8,6.474-6.71c4.34,0.063,6.099,3.201,6.261,6.092C411.092,39.844,409.605,41.269,404.256,41.195z"/>
					<path fill="#FFFFFF" d="M410.315,69.211c0.019-7.21,0.532-17.482,0.504-18.266c-0.162-4.952-4.074-5.699-5.835-5.723
						c-2.097-0.029-4.433,0.485-6.526,2.396c-0.26,0.229-0.145,0.506-0.07,0.822c0.296,1.287,0.589,3.543,0.613,5.367
						c0.023,7.043,0.144,23.683,0.244,26.092c0.212,4.79,2.354,6.961,8.074,6.948c1.716-0.004,3.625-0.281,3.996-0.424
						C411.315,86.422,410.289,79.444,410.315,69.211z"/>
					<path fill="#FFFFFF" d="M390.497,71.927c-0.146-2.363-1.944-31.749-2.895-38.924c-0.367-2.788-0.411-7.459-2.749-9.418
						c-2.904-2.434-8.51,0.003-8.787,0.24c-2.99,3.918-11.409,33.397-11.805,34.34c-0.494-1.361-6.146-27.328-12.128-36.403
						c-2.75-4.172-8.924-1.213-9.538-0.796c-3.153,3.777-5.25,39.395-6.227,46.649c-1.149,8.535-1.09,11.698-4.002,18.007
						c-0.2,0.435,2.065,1.268,5.707,1.383c4.706,0.15,6.566-1.419,7.894-6.943c1.973-8.209,2.666-40.632,3.392-40.402
						c0,0,6.21,22.523,7.377,25.322c1.183,2.836,2.561,3.471,5.879,3.358c3.527-0.12,5.565-0.771,6.733-3.865
						c4.106-10.883,6.978-23.235,8.74-26.008c0.048,0.316,0.6,31.917,0.754,37.95c0.194,7.551,2.73,9.968,6.944,10.656
						c4.896,0.799,7.749-0.979,7.749-0.979C391.903,84.146,390.943,79.169,390.497,71.927z"/>
					<path fill="#FFFFFF" d="M446.153,75.248c-0.992,1.377-5.559,4.356-9.563,4.356c-5.235,0-9.745-4.891-9.745-12.917
						c0-8.483,4.966-12.881,9.002-12.857c3.931,0.024,4.996,3.026,5.904,4.667c1.109,2.151,6.732-1.317,6.912-2.494
						c-1.364-5.86-6.164-10.792-14.115-10.792c-7.796,0-18.727,6.647-18.773,21.646c-0.043,13.652,9.179,20.602,19.324,20.602
						c6.497,0,13.311-3.837,13.311-8.855C448.409,77.533,447.474,75.281,446.153,75.248z"/>
					<path fill="#FFFFFF" d="M515.147,45.127c-12.021,0-19.716,10.763-19.716,21.685c0,12.807,10.193,20.69,19.716,20.69
						c9.521,0,19.716-7.883,19.716-20.69C534.863,55.89,527.167,45.127,515.147,45.127z M515.147,80.941
						c-4.6,0-8.334-5.23-8.334-14.129c0-10.511,4.299-14.924,8.334-14.944c4.034,0.02,8.334,4.433,8.334,14.944
						C523.481,75.711,519.747,80.941,515.147,80.941z"/>
					<path fill="#FFFFFF" d="M493.5,80.977c-2.32-1.544-3.629-3.585-3.751-5.921c-0.167-3.016-0.122-15.069-0.122-18.08
						c0-9.971-10.202-14.933-17.821-8.898c-3.953,3.131-5.596,5.184-7.336,7.357l0.113-17.729c-0.193-4.885-2.527-7.229-7.908-7.306
						c-1.225-0.023-2.302,0.093-3.579,0.272l-0.071,47.541c0,3.862,1.203,7.108,4.862,7.965c2.831,0.662,6.991,0.323,7.074-0.088
						c-0.593-4.309-0.488-15.352-0.419-16.864c0.14-3.086,0.508-4.857,1.589-6.628c2.098-3.434,5.55-7.857,8.327-7.857
						c2.361,0,3.179,2.498,3.238,3.639c0.404,7.778-0.444,11.99,0.594,18.058c1.177,7.075,6.293,10.175,10.236,10.175
						c2.348,0,4.439-1.154,5.46-3.719C494.548,81.473,494.549,81.675,493.5,80.977z"/>
				</g>
			</g>
		</g>
	</g>
	<g display="none">
		<rect x="304.897" y="323.68" display="inline" fill="none" width="309.682" height="101.073"/>
		<g display="inline">
			<g>
				<g>
					<path fill="#FFFFFF" d="M416.355,384.325L416.355,384.325h-91.244v2.486h93.024
						C417.05,385.663,416.446,384.776,416.355,384.325z"/>
					<path fill="#FFFFFF" d="M594.365,384.325h-91.243c-5.318,4.099-11.084,7.465-17.214,9.977
						c7.387-1.985,13.415-4.678,18.191-7.49h90.266V384.325z"/>
				</g>
				<path id="XMLID_10_" fill="#00833E" d="M594.365,343.895H325.111v40.43h91.244c10.763,8.294,28.79,15.136,43.383,15.136
					c16.211,0,31.004-5.595,43.384-15.136h91.243V343.895z"/>
				<rect x="325.111" y="341.408" fill="#FFFFFF" width="269.253" height="2.487"/>
				<path fill="#B1BC00" d="M471.857,389.581c-11.686,1.233-18.039-1.67-18.305-1.182c-0.673,1.236,4.432,6.441,17.38,5.535
					c11.537-0.809,19.683-8.411,22.504-13.039C492.797,380.285,483.49,388.354,471.857,389.581z"/>
				<path fill="#E2231A" d="M461.748,397.528c-21.053,0.343-38.363-9.001-45.393-13.203c0.543,2.688,19.186,20.732,50.035,18.442
					c25.881-1.922,37.709-13.483,37.709-15.956C494.892,392.232,481.051,397.212,461.748,397.528z"/>
				<g id="XMLID_1_">
					<g>
						<path fill="#FFFFFF" d="M422.386,371.649c-0.134-2.255,0.084-7.326-0.016-9.121c-0.115-1.984-1.322-2.776-3.167-2.776
							c-0.498,0-0.997,0.061-1.585,0.152c0.463,2.449,0.212,4.974,0.086,6.637c-0.099,1.3-0.625,2.334-0.979,2.878
							c-1.669,2.558-2.564,2.891-3.173,2.891c-0.652,0-1.213-0.452-1.284-1.329c-0.077-0.952-0.014-6.895,0.029-8.043
							c0.144-3.838-3.441-3.174-4.109-3.101c-0.242,0.026-0.403,0.052-0.636,0.076c0.012,0.645,0.144,9.453,0.159,10.626
							c0.068,4.953,3.001,5.744,4.523,5.575c1.56-0.172,3.092-1.703,4.011-2.779c0.265-0.312,1.34-1.676,1.34-1.676
							c0.251,1.098,0.703,3.809,3.567,4.51c1.339,0.329,2.61-0.136,3.095-1.808c0.015-0.051-0.001-0.096-0.043-0.12
							C423.639,373.911,422.473,373.124,422.386,371.649z"/>
					</g>
					<path id="XMLID_8_" fill="#FFFFFF" d="M556.514,375.741c-0.581-1.727-0.593-0.724-0.627-10.484
						c-0.018-5.004-3.001-5.802-4.523-5.632c-2.45,0.273-4.875,3.348-5.432,4.151c-0.295-1.527-1.12-3.51-3.486-4.095
						c-1.361-0.337-2.451,0.188-2.929,1.4c-0.229,0.577-0.224,0.491,0.192,0.772c1.094,0.734,1.456,1.65,1.516,2.748
						c0.068,1.204-0.05,7.676,0.003,8.648c0.158,2.757,2.42,2.804,3.167,2.804c0.472,0,0.974-0.037,1.561-0.13
						c-0.316-2.599-0.152-4.32-0.023-6.688c0.057-1.048,0.301-1.914,0.729-2.622c0.855-1.417,2.256-3.24,3.386-3.24
						c0.652,0,1.194,0.55,1.266,1.437c0.077,0.962-0.001,6.732,0.009,8.027c0.02,2.767,1.673,3.221,3.009,3.221
						C554.989,376.058,555.931,375.915,556.514,375.741z"/>
					<path fill="#FFFFFF" d="M405.291,372.224c-0.135-0.451-0.412-0.917-0.623-1.024c-0.816,0.796-2.396,2.042-3.89,2.042
						c-1.064,0-2.783-0.593-3.318-1.826c4.232-1.627,6.871-3.429,7.332-6.405c0.544-3.512-1.646-5.538-5.03-5.538
						c-5.51,0-7.78,4.398-7.785,8.761c-0.005,4.099,2.406,8.142,8.184,8.142C401.817,376.375,406.162,375.141,405.291,372.224z
						 M396.629,369.056c-0.636-3.376,0.788-6.9,3.389-6.9c2.007,0,1.783,3.376,0.332,4.727
						C399.195,367.958,397.905,368.625,396.629,369.056z"/>
					<path fill="#FFFFFF" d="M391.315,372.497c-0.387,0.098-0.765,0.212-1.401,0.212c-1.359,0-2.303-0.721-2.711-1.729
						c-0.564-1.399-0.15-11.128-0.17-12.805c0.033-1.99-0.353-2.736-1.551-3.115c-0.853-0.267-2.13-0.214-3.099-0.078
						c0,0,0.008,11.122,0.047,13.818c0.063,4.35,1.5,6.828,5.006,7.265c1.548,0.192,3.168-0.078,3.615-0.772
						C391.479,374.627,391.571,373.366,391.315,372.497z"/>
					<path fill="#FFFFFF" d="M436.42,361.346c0.148-2.069-0.218-2.284-2.025-1.842c-1.947,0.477-2.724,1.932-3.483,4.635
						c-0.005-0.494-0.017-1.738-0.041-2.229c-0.076-1.636-1.197-2.259-2.331-2.259c-0.839,0-1.925,0.377-2.752,1.152
						c-0.06,0.061-0.063,0.172-0.023,0.329c0.482,1.975,0.45,3.717,0.419,5.688c-0.019,1.654-0.106,4.594,0.06,6.513
						c0.192,2.169,1.634,2.776,3.252,2.776c0.498,0,0.996-0.061,1.58-0.152c-0.401-1.672-0.521-6.778-0.188-8.822
						c0.543-2.879,3.183-3.838,4.614-3.389C435.831,363.85,436.327,362.653,436.42,361.346z"/>
					<path fill="#FFFFFF" d="M384.169,348.929c0,0-0.488,0.142-3.704,0.302c-2.78,0.138-7.595,0.075-8.661,0.128
						c-2.463,0.144-3.354,1.501-3.258,4.149s0.646,20.44,0.045,22.061c0,0,1.526,0.966,3.188,0.491
						c1.505-0.43,1.645-2.055,1.714-3.149c0.088-1.399,0.091-9.159,0.113-9.605c1.019-0.037,2.281-0.028,3.397-0.065
						c0.949-0.04,2.444-0.53,2.945-1.843c0.158-0.414,0.174-1.074,0.01-1.674c-0.541,0.098-0.859,0.145-2.183,0.145
						c-0.666,0-4.217-0.056-4.217-0.056s-0.077-5.417,0.053-6.647c0,0,4.563,0.166,6.168,0.205c1.95,0.035,3.378-0.402,4.002-1.548
						C384.288,350.894,384.302,349.944,384.169,348.929z"/>
					<path fill-rule="evenodd" clip-rule="evenodd" fill="#FFFFFF" d="M453.079,362.516c0.027-1.966-1.478-3.066-4.711-2.739
						c0.597,6.031-0.161,11.476-2.714,11.539c-1.009,0.024-1.603-1.413-2.905-7.863c-0.502-2.483-0.702-4.407-4.861-3.702
						c-0.521,0.088-0.518,0.102-0.313,0.767c0.67,2.179,1.972,8.543,2.393,10.08c0.687,2.51,2.493,4.209,4.718,4.019
						c1.386-0.119,2.215-0.905,2.702-1.773c-0.844,6.024-5.033,8.621-8.875,7.122c-0.116-0.045-0.25,0.07-0.362,0.412
						c-0.537,1.693,0.899,3.408,2.479,3.742C446.459,385.351,452.834,380.116,453.079,362.516z"/>
					<path id="XMLID_7_" fill="#FFFFFF" d="M486.814,357.886c-1.215-0.017-2.286-0.558-2.453-1.971
						c-0.13-1.092,0.117-2.72,2.589-2.684c1.736,0.024,2.439,1.28,2.505,2.437C489.548,357.345,488.954,357.916,486.814,357.886z"/>
					<path fill="#FFFFFF" d="M489.238,369.092c0.007-2.884,0.213-6.993,0.201-7.307c-0.064-1.98-1.63-2.279-2.334-2.289
						c-0.839-0.012-1.773,0.194-2.61,0.959c-0.104,0.092-0.058,0.202-0.028,0.328c0.118,0.515,0.235,1.418,0.245,2.147
						c0.01,2.816,0.058,9.473,0.098,10.437c0.085,1.915,0.942,2.784,3.229,2.779c0.687-0.002,1.45-0.112,1.599-0.17
						C489.637,375.977,489.227,373.186,489.238,369.092z"/>
					<path fill="#FFFFFF" d="M481.31,370.179c-0.059-0.945-0.777-12.699-1.157-15.569c-0.147-1.115-0.165-2.984-1.1-3.768
						c-1.162-0.974-3.404,0.001-3.516,0.096c-1.195,1.567-4.563,13.359-4.722,13.736c-0.197-0.545-2.459-10.931-4.852-14.562
						c-1.1-1.669-3.569-0.485-3.814-0.318c-1.262,1.511-2.101,15.758-2.491,18.66c-0.459,3.414-0.436,4.679-1.601,7.203
						c-0.08,0.174,0.826,0.507,2.283,0.553c1.882,0.061,2.626-0.567,3.157-2.777c0.789-3.283,1.066-16.252,1.356-16.16
						c0,0,2.483,9.009,2.95,10.129c0.474,1.135,1.024,1.388,2.352,1.343c1.411-0.048,2.227-0.308,2.694-1.546
						c1.642-4.354,2.791-9.294,3.496-10.403c0.019,0.127,0.239,12.768,0.302,15.181c0.077,3.02,1.092,3.987,2.777,4.262
						c1.958,0.32,3.1-0.392,3.1-0.392C481.873,375.067,481.489,373.076,481.31,370.179z"/>
					<path fill="#FFFFFF" d="M503.573,371.507c-0.397,0.551-2.224,1.742-3.825,1.742c-2.095,0-3.898-1.956-3.898-5.167
						c0-3.394,1.986-5.152,3.601-5.143c1.572,0.01,1.999,1.21,2.362,1.866c0.443,0.86,2.692-0.526,2.765-0.997
						c-0.546-2.345-2.466-4.317-5.646-4.317c-3.118,0-7.49,2.659-7.509,8.658c-0.018,5.461,3.671,8.241,7.729,8.241
						c2.599,0,5.324-1.535,5.324-3.542C504.475,372.421,504.101,371.521,503.573,371.507z"/>
					<path fill="#FFFFFF" d="M531.17,359.459c-4.809,0-7.887,4.305-7.887,8.674c0,5.122,4.078,8.275,7.887,8.275
						s7.886-3.153,7.886-8.275C539.056,363.764,535.978,359.459,531.17,359.459z M531.17,373.785c-1.84,0-3.334-2.092-3.334-5.651
						c0-4.205,1.72-5.97,3.334-5.978c1.613,0.008,3.333,1.772,3.333,5.978C534.503,371.693,533.01,373.785,531.17,373.785z"/>
					<path fill="#FFFFFF" d="M522.511,373.799c-0.928-0.618-1.452-1.435-1.501-2.369c-0.066-1.206-0.048-6.027-0.048-7.231
						c0-3.988-4.081-5.973-7.129-3.56c-1.581,1.253-2.238,2.074-2.935,2.943l0.046-7.092c-0.077-1.954-1.012-2.892-3.163-2.922
						c-0.49-0.01-0.921,0.037-1.433,0.108l-0.028,19.017c0,1.545,0.481,2.843,1.945,3.186c1.132,0.265,2.796,0.13,2.83-0.035
						c-0.237-1.724-0.195-6.141-0.168-6.746c0.056-1.233,0.203-1.942,0.636-2.651c0.839-1.373,2.22-3.143,3.33-3.143
						c0.945,0,1.272,0.999,1.296,1.456c0.162,3.111-0.178,4.796,0.237,7.223c0.471,2.83,2.518,4.07,4.095,4.07
						c0.939,0,1.775-0.462,2.184-1.487C522.931,373.998,522.931,374.078,522.511,373.799z"/>
				</g>
			</g>
		</g>
	</g>
	<rect id="_x3C_Tranche_x3E_" fill="none" width="673.132" height="153.897"/>
</g>
<g id="Interne" display="none">
	
		<rect x="-28.623" y="299.039" display="inline" fill="none" stroke="#1D1D1B" stroke-width="0.225" width="678.371" height="142.119"/>
	<line display="inline" fill="none" stroke="#1D1D1B" stroke-width="0.27" x1="154.925" y1="315.877" x2="649.749" y2="315.877"/>
	<text transform="matrix(1 0 0 1 -24.2344 349.0356)" display="inline"><tspan x="0" y="0" fill="#1D1D1B" font-family="'Univers-CondensedBold'" font-size="6.5">24, rue Salomon de Rothschild - 92288 Suresnes - FRANCE</tspan><tspan x="0" y="8" fill="#1D1D1B" font-family="'Univers-CondensedBold'" font-size="6.5">Tél. : +33 (0)1 57 32 87 00 / Fax : +33 (0)1 57 32 87 87</tspan><tspan x="0" y="16" fill="#1D1D1B" font-family="'Univers-CondensedBold'" font-size="6.5">Web : www.carrenoir.com</tspan></text>
	<g display="inline">
		<g>
			<g>
				<g>
					<g>
						<g>
							<line fill="none" stroke="#1D1D1B" stroke-width="0.27" x1="16.1" y1="315.877" x2="154.925" y2="315.877"/>
							<line fill="none" stroke="#1D1D1B" stroke-width="0.27" x1="16.1" y1="327.61" x2="154.925" y2="327.61"/>
							<line fill="none" stroke="#1D1D1B" stroke-width="0.27" x1="16.1" y1="339.342" x2="154.925" y2="339.342"/>
							<line fill="none" stroke="#1D1D1B" stroke-width="0.27" x1="-28.623" y1="370.914" x2="154.925" y2="370.914"/>
						</g>
					</g>
				</g>
			</g>
		</g>
		<rect x="18.659" y="305.667" fill="none" width="133.411" height="34.225"/>
		<text transform="matrix(1 0 0 1 18.6592 313.3774)"><tspan x="0" y="0" fill="#1D1D1B" font-family="'Univers-CondensedBold'" font-size="8.1">FLEURY MICHON</tspan><tspan x="0" y="10.8" fill="#E20613" font-family="'Univers-CondensedBold'" font-size="8.1">FLE_15_8041</tspan><tspan x="44.784" y="10.8" fill="#1D1D1B" font-family="'Univers-CondensedBold'" font-size="8.1">_LogoCourt18_RVB</tspan><tspan x="0" y="22.5" fill="#E20613" font-family="'Univers-CondensedBold'" font-size="8.1">17/05/2018</tspan></text>
	</g>
	<g display="inline">
		<g>
			<g>
				<path fill="none" stroke="#1D1D1B" stroke-width="0.27" d="M-24.871,352.793"/>
				<line fill="none" stroke="#1D1D1B" stroke-width="0.5" x1="154.925" y1="299.039" x2="154.925" y2="441.158"/>
				<line fill="none" stroke="#1D1D1B" stroke-width="0.27" x1="154.925" y1="299.039" x2="154.925" y2="441.158"/>
			</g>
		</g>
	</g>
	<text transform="matrix(1 0 0 1 160.5942 310.3765)" display="inline" font-family="'Univers-Condensed'" font-size="8">ÉQUIVALENCE RVB / HTML</text>
	<g display="inline">
		<g>
			<g>
				<path fill="none" stroke="#1D1D1B" stroke-width="0.27" d="M102.727,352.793"/>
			</g>
		</g>
	</g>
	<g display="inline">
		<text transform="matrix(1 0 0 1 160.5942 348.0796)" font-family="'Helvetica-Condensed'" font-size="8">R0 V131 B62 / #00833E</text>
		<g>
			<line fill="none" stroke="#1D1D1B" stroke-width="0.27" x1="154.925" y1="350.914" x2="325.111" y2="350.914"/>
			<circle cx="325.111" cy="350.914" r="1.417"/>
		</g>
	</g>
	<g display="inline">
		<text transform="matrix(1 0 0 1 160.5942 398.395)" font-family="'Helvetica-Condensed'" font-size="8">R226 V35 B26 / #E2231A</text>
		<g>
			<line fill="none" stroke="#1D1D1B" stroke-width="0.27" x1="154.925" y1="401.229" x2="447.184" y2="401.229"/>
			<circle cx="447.184" cy="401.229" r="1.417"/>
		</g>
	</g>
	<g display="inline">
		<text transform="matrix(1 0 0 1 160.5942 386.8511)" font-family="'Helvetica-Condensed'" font-size="8">R177 V188 B0 / #B1BC00</text>
		<g>
			<line fill="none" stroke="#1D1D1B" stroke-width="0.27" x1="154.925" y1="389.685" x2="454.183" y2="389.685"/>
			<circle cx="454.183" cy="389.685" r="1.417"/>
		</g>
	</g>
	<g display="inline">
		<path fill="#FFEC00" stroke="#D10A11" stroke-width="1.98" d="M-23.941,406.178c-0.634,1.205,0.007,2.191,1.424,2.191H9.381
			c1.416,0,2.053-0.983,1.414-2.187l-16.301-29.131c-0.639-1.203-1.681-1.201-2.314,0.005L-23.941,406.178z"/>
		<path fill="#D10A11" d="M-9.126,384.167h5.153v5.883l-1.31,10.825h-2.492l-1.352-10.825V384.167z M-8.999,402.079H-4.1v4.539
			h-4.899V402.079z"/>
	</g>
	<polygon display="inline" fill="none" points="149.256,441.155 -22.953,441.155 -22.953,409.97 16.34,409.97 -3.377,374.033 
		149.256,374.033 	"/>
	<text transform="matrix(1 0 0 1 0.5376 381.1724)" display="inline"><tspan x="0" y="0" fill="#E20613" font-family="'Univers-CondensedBold'" font-size="7.5">C</tspan><tspan x="4.356" y="0" fill="#E20613" font-family="'Univers-CondensedBold'" font-size="7.5">e</tspan><tspan x="7.986" y="0" fill="#E20613" font-family="'Univers-CondensedBold'" font-size="7.5"> </tspan><tspan x="9.741" y="0" fill="#E20613" font-family="'Univers-CondensedBold'" font-size="7.5">fichie</tspan><tspan x="26.73" y="0" fill="#E20613" font-family="'Univers-CondensedBold'" font-size="7.5">r</tspan><tspan x="29.056" y="0" fill="#E20613" font-family="'Univers-CondensedBold'" font-size="7.5"> </tspan><tspan x="30.811" y="0" fill="#E20613" font-family="'Univers-CondensedBold'" font-size="7.5">es</tspan><tspan x="37.551" y="0" fill="#E20613" font-family="'Univers-CondensedBold'" font-size="7.5">t</tspan><tspan x="39.906" y="0" fill="#E20613" font-family="'Univers-CondensedBold'" font-size="7.5"> </tspan><tspan x="41.661" y="0" fill="#E20613" font-family="'Univers-CondensedBold'" font-size="7.5">u</tspan><tspan x="45.8" y="0" fill="#E20613" font-family="'Univers-CondensedBold'" font-size="7.5">n</tspan><tspan x="49.834" y="0" fill="#E20613" font-family="'Univers-CondensedBold'" font-size="7.5"> </tspan><tspan x="51.589" y="0" fill="#E20613" font-family="'Univers-CondensedBold'" font-size="7.5">documen</tspan><tspan x="81.649" y="0" fill="#E20613" font-family="'Univers-CondensedBold'" font-size="7.5">t</tspan><tspan x="84.004" y="0" fill="#E20613" font-family="'Univers-CondensedBold'" font-size="7.5"> </tspan><tspan x="85.759" y="0" fill="#E20613" font-family="'Univers-CondensedBold'" font-size="7.5">d’exécutio</tspan><tspan x="118.44" y="0" fill="#E20613" font-family="'Univers-CondensedBold'" font-size="7.5">n</tspan><tspan x="122.476" y="0" fill="#E20613" font-family="'Univers-CondensedBold'" font-size="7.5"> </tspan><tspan x="124.23" y="0" fill="#E20613" font-family="'Univers-CondensedBold'" font-size="7.5">cré</tspan><tspan x="133.797" y="0" fill="#E20613" font-family="'Univers-CondensedBold'" font-size="7.5">é</tspan><tspan x="137.419" y="0" fill="#E20613" font-family="'Univers-CondensedBold'" font-size="7.5"> </tspan><tspan x="139.166" y="0" fill="#E20613" font-family="'Univers-CondensedBold'" font-size="7.5">su</tspan><tspan x="146.266" y="0" fill="#E20613" font-family="'Univers-CondensedBold'" font-size="7.5">r </tspan><tspan x="4.389" y="8" fill="#E20613" font-family="'Univers-CondensedBold'" font-size="7.5">Illustrator version CS6.</tspan></text>
	<g display="inline">
		<g>
			<rect x="-24.441" y="304.141" width="35.672" height="35.323"/>
			<polygon fill="#FFFFFF" points="6.535,304.139 3.679,307.986 3.148,307.591 5.695,304.139 			"/>
			<g>
				<polygon fill="#FFFFFF" points="-13.62,317.473 -13.62,311.079 -12.438,311.079 -8.338,317.473 -9.158,317.473 -10.825,314.939 
					-12.239,314.939 -12.239,314.331 -11.194,314.331 -12.93,311.687 -12.93,317.473 				"/>
				<path fill="#FFFFFF" d="M-8.563,317.473v-6.395h2.085c0,0,2.121-0.091,2.092,1.873c0,0,0.11,1.428-1.652,1.709l2.086,2.813
					h-0.895l-2.439-3.318h0.688c0,0,1.513,0.006,1.49-1.301c0,0,0.042-1.161-1.467-1.161c-1.507,0-1.302,0-1.302,0v5.78H-8.563z"/>
				<path fill="#FFFFFF" d="M-3.47,317.473v-6.395h2.087c0,0,2.122-0.091,2.091,1.873c0,0,0.111,1.428-1.651,1.709l2.085,2.813
					H0.248l-2.438-3.318h0.687c0,0,1.514,0.006,1.488-1.301c0,0,0.044-1.161-1.462-1.161c-1.509,0-1.303,0-1.303,0v5.78H-3.47z"/>
				<polygon fill="#FFFFFF" points="1.639,317.473 1.639,311.079 5.552,311.079 5.552,311.711 2.323,311.711 2.323,313.862 
					5.443,313.862 5.443,314.568 2.328,314.568 2.328,316.829 5.619,316.829 5.619,317.473 				"/>
				<path fill="#FFFFFF" d="M1.639,324.753v-6.394h2.086c0,0,2.122-0.094,2.093,1.872c0,0,0.107,1.427-1.654,1.706l2.178,2.815
					H5.443l-2.526-3.317h0.686c0,0,1.514,0.004,1.49-1.303c0,0,0.041-1.161-1.466-1.161c-1.232,0-1.301,0-1.301,0v5.781H1.639z"/>
				<rect x="0.058" y="318.36" fill="#FFFFFF" width="0.716" height="6.394"/>
				<polygon fill="#FFFFFF" points="-7.877,324.753 -7.877,318.36 -8.563,318.36 -8.563,323.917 -12.473,318.36 -13.62,318.36 
					-13.62,324.753 -12.93,324.753 -12.93,318.966 -8.872,324.753 				"/>
				<path fill="#FFFFFF" d="M-3.913,318.215c-1.831,0-3.314,1.484-3.314,3.313c0,1.83,1.483,3.313,3.314,3.313
					c1.827,0,3.312-1.483,3.312-3.313C-0.602,319.7-2.086,318.215-3.913,318.215z M-3.913,324.134c-1.438,0-2.606-1.165-2.606-2.606
					c0-1.438,1.168-2.604,2.606-2.604c1.439,0,2.604,1.166,2.604,2.604C-1.31,322.969-2.474,324.134-3.913,324.134z"/>
				<path fill="#FFFFFF" d="M-16.6,316.889c-1.439,0-2.605-1.169-2.605-2.607s1.166-2.624,2.605-2.624
					c0.881,0,1.707,0.42,2.214,1.06v-0.934c-0.588-0.52-1.359-0.834-2.202-0.834c-1.838,0-3.325,1.489-3.325,3.324
					c0,1.836,1.487,3.326,3.325,3.326c0.843,0,1.617-0.292,2.205-0.811l-0.003-0.913C-14.903,316.466-15.796,316.889-16.6,316.889z"
					/>
			</g>
		</g>
	</g>
	<rect x="-85.316" y="-125.771" display="inline" fill="none" width="841.89" height="595.275"/>
</g>
</svg>
